{"title":"BBC Light Fantastic","uid":6765772,"size":1096494084,"categoryP":"video","categoryS":"music_videos","magnet":"?xt=urn:btih:b556568afa3821072f33c2584258d55478dfb8af&amp;dn=BBC+Light+Fantastic&amp;tr=udp%3A%2F%2Ftracker.openbittorrent.com%3A80&amp;tr=udp%3A%2F%2Fopen.demonii.com%3A1337&amp;tr=udp%3A%2F%2Ftracker.coppersurfer.tk%3A6969&amp;tr=udp%3A%2F%2Fexodus.desync.com%3A6969","seeders":1,"leechers":0,"uploader":null,"files":3,"time":1319381426,"description":"Petroc Trelawny introduces a concert of the very best in light music to celebrate the 60th anniversary of the Festival of Britain. John Wilson, the modern champion of light music, conducts the BBC Symphony Orchestra in a concert from London's South Bank, including works by Eric Coates, Edward German and Robert Farnon.\n\nFormat : MPEG-4\nFormat profile : Base Media\nCodec ID : isom\nFile size : 1.02 GiB\nDuration : 1h 37mn\nOverall bit rate : 1 503 Kbps\nWriting application : Lavf53.13.0\n\nVideo\nID : 1\nFormat : AVC\nFormat/Info : Advanced Video Codec\nFormat profile : &lt;a class=&quot;__cf_email__&quot; href=&quot;/cdn-cgi/l/email-protection&quot; data-cfemail=&quot;99d4f8f0f7d9d5aab7a9&quot;&gt;[email&amp;#160;protected]&lt;/a&gt;&lt;script cf-hash='f9e31' type=&quot;text/javascript&quot;&gt;\n/* &lt;![CDATA[ */!function(){try{var t=&quot;currentScript&quot;in document?document.currentScript:function(){for(var t=document.getElementsByTagName(&quot;script&quot;),e=t.length;e--;)if(t[e].getAttribute(&quot;cf-hash&quot;))return t[e]}();if(t&amp;&amp;t.previousSibling){var e,r,n,i,c=t.previousSibling,a=c.getAttribute(&quot;data-cfemail&quot;);if(a){for(e=&quot;&quot;,r=parseInt(a.substr(0,2),16),n=2;a.length-n;n+=2)i=parseInt(a.substr(n,2),16)^r,e+=String.fromCharCode(i);e=document.createTextNode(e),c.parentNode.replaceChild(e,c)}}}catch(u){}}();/* ]]&gt; */&lt;/script&gt;\nFormat settings, CABAC : Yes\nFormat settings, ReFrames : 4 frames\nCodec ID : avc1\nCodec ID/Info : Advanced Video Coding\nDuration : 1h 37mn\nBit rate mode : Constant\nBit rate : 1 404 Kbps\nWidth : 832 pixels\nHeight : 468 pixels\nDisplay aspect ratio : 16:9\nFrame rate mode : Constant\nFrame rate : 25.000 fps\nStandard : PAL\nColor space : YUV\nChroma subsampling : 4:2:0\nBit depth : 8 bits\nScan type : Progressive\nBits/(Pixel*Frame) : 0.144\nStream size : 976 MiB (93%)\n\nAudio\nID : 2\nFormat : AAC\nFormat/Info : Advanced Audio Codec\nFormat profile : HE-AAC / LC\nCodec ID : 40\nDuration : 1h 37mn\nBit rate mode : Constant\nBit rate : 96.0 Kbps\nChannel(s) : 2 channels\nChannel positions : Front: L R\nSampling rate : 48.0 KHz / 24.0 KHz\nCompression mode : Lossy\nStream size : 65.9 MiB (6%)","torrent":{"xt":"urn:btih:b556568afa3821072f33c2584258d55478dfb8af","amp;dn":"BBC+Light+Fantastic","amp;tr":["udp%3A%2F%2Ftracker.openbittorrent.com%3A80","udp%3A%2F%2Fopen.demonii.com%3A1337","udp%3A%2F%2Ftracker.coppersurfer.tk%3A6969","udp%3A%2F%2Fexodus.desync.com%3A6969"],"infoHash":"b556568afa3821072f33c2584258d55478dfb8af","infoHashBuffer":{"type":"Buffer","data":[181,86,86,138,250,56,33,7,47,51,194,88,66,88,213,84,120,223,184,175]},"announce":[],"urlList":[]}}